# xmcd CD database file
#
# Track frame offsets:
#	150
#	30927
#	57167
#	81422
#	101710
#	124972
#	158490
#	183365
#	207865
#	230875
#	257750
#	272465
#
# Disc length: 4063 seconds
#
# Revision: 0
# Processed by: cddbd v1.5.1PL0 Copyright (c) Steve Scherf et al.
# Submitted via: CDex 1.51
#
DISCID=9e0fdd0c
DTITLE=Galaxy - Nobeel
DYEAR=1977
DGENRE=Jazz
TTITLE0=Lele
TTITLE1=Bul Faale
TTITLE2=Bet Sebbi
TTITLE3=Diom
TTITLE4=Nous Deux
TTITLE5=Nobeel
TTITLE6=Wayaane
TTITLE7=Weer Wi
TTITLE8=Yaafus
TTITLE9=Singing Tama
TTITLE10=B`Ggu Loko
TTITLE11=Niaani
EXTD=YEAR: 1977
EXTT0=
EXTT1=
EXTT2=
EXTT3=
EXTT4=
EXTT5=
EXTT6=
EXTT7=
EXTT8=
EXTT9=
EXTT10=
EXTT11=
PLAYORDER=
